<svg width="51" height="53" viewBox="0 0 51 53" fill="none" xmlns="http://www.w3.org/2000/svg">
<g clip-path="url(#clip0_59_1247)">
<path d="M48.6886 20.2109H43.757L41.2667 10.4941C41.1365 9.87565 40.7947 9.40364 40.2414 9.07812C39.688 8.7526 39.102 8.67122 38.4835 8.83398L32.8195 10.25C32.6242 10.3151 32.4777 10.429 32.38 10.5918C32.2824 10.7546 32.2661 10.9336 32.3312 11.1289C32.3637 11.3242 32.4695 11.4707 32.6486 11.5684C32.8276 11.666 32.9985 11.6986 33.1613 11.666L38.8742 10.2012C39.102 10.1361 39.3136 10.1686 39.5089 10.2988C39.7042 10.429 39.8344 10.6081 39.8996 10.8359L40.1925 11.9102L2.69252 21.4805L2.44838 20.4062C2.41583 20.276 2.40769 20.154 2.42397 20.04C2.44024 19.9261 2.48093 19.8203 2.54604 19.7227C2.61114 19.625 2.68438 19.5436 2.76576 19.4785C2.84714 19.4134 2.95294 19.3646 3.08315 19.332L28.8156 12.7402C29.0109 12.7077 29.1574 12.61 29.255 12.4473C29.3527 12.2845 29.3852 12.1055 29.3527 11.9102C29.2876 11.7148 29.1736 11.5684 29.0109 11.4707C28.8481 11.373 28.6691 11.3405 28.4738 11.373L2.69252 17.9648C2.10658 18.0951 1.65086 18.4368 1.32533 18.9902C0.999814 19.5436 0.902158 20.1296 1.03237 20.748L6.35463 41.4512C6.48484 41.972 6.7534 42.3952 7.1603 42.7207C7.5672 43.0462 8.03106 43.209 8.5519 43.209C8.64955 43.209 8.74721 43.2008 8.84487 43.1846C8.94252 43.1683 9.04018 43.1439 9.13783 43.1113L9.47963 43.0137V43.8926C9.47963 44.5436 9.69936 45.0889 10.1388 45.5283C10.5783 45.9678 11.1235 46.1875 11.7746 46.1875H48.6886C49.3071 46.1875 49.8442 45.9678 50.2999 45.5283C50.7557 45.0889 50.9835 44.5436 50.9835 43.8926V22.5059C50.9835 21.8874 50.7557 21.3503 50.2999 20.8945C49.8442 20.4388 49.3071 20.2109 48.6886 20.2109ZM9.47963 41.5488L8.79604 41.7441C8.53562 41.8092 8.30776 41.7767 8.11244 41.6465C7.91713 41.5163 7.78692 41.3372 7.72182 41.1094L4.49916 28.4141L9.47963 27.1445V41.5488ZM9.47963 22.5059V25.6797L4.15737 27.0469L3.08315 22.8477L9.96791 21.0898C9.80515 21.2852 9.68308 21.5049 9.6017 21.749C9.52032 21.9932 9.47963 22.2454 9.47963 22.5059ZM42.2921 20.2109H36.6281L41.9503 18.8926L42.2921 20.2109ZM40.5343 13.2773L41.6085 17.4766L30.8175 20.2109H13.3371L40.5343 13.2773ZM48.6886 44.7715H11.7746C11.5141 44.7715 11.3025 44.6901 11.1398 44.5273C10.977 44.3646 10.8956 44.153 10.8956 43.8926V22.5059C10.8956 22.278 10.977 22.0827 11.1398 21.9199C11.3025 21.7572 11.5141 21.6758 11.7746 21.6758H48.6886C48.9165 21.6758 49.1199 21.7572 49.299 21.9199C49.478 22.0827 49.5675 22.278 49.5675 22.5059V43.8926C49.5675 44.153 49.478 44.3646 49.299 44.5273C49.1199 44.6901 48.9165 44.7715 48.6886 44.7715ZM29.4503 37.8379H13.8742C13.6789 37.8379 13.508 37.903 13.3615 38.0332C13.215 38.1634 13.1417 38.3262 13.1417 38.5215C13.1417 38.7168 13.215 38.8877 13.3615 39.0342C13.508 39.1807 13.6789 39.2539 13.8742 39.2539H29.4503C29.6456 39.2539 29.8084 39.1807 29.9386 39.0342C30.0688 38.8877 30.1339 38.7168 30.1339 38.5215C30.1339 38.3262 30.0688 38.1634 29.9386 38.0332C29.8084 37.903 29.6456 37.8379 29.4503 37.8379ZM41.3644 25.2402C40.8436 25.2402 40.3471 25.3216 39.8751 25.4844C39.4031 25.6471 38.9718 25.875 38.5812 26.168C38.1906 25.875 37.7593 25.6471 37.2873 25.4844C36.8152 25.3216 36.3351 25.2402 35.8468 25.2402C34.5447 25.2402 33.4298 25.7041 32.5021 26.6318C31.5744 27.5596 31.1105 28.6745 31.1105 29.9766C31.1105 31.2461 31.5744 32.3447 32.5021 33.2725C33.4298 34.2002 34.5447 34.6641 35.8468 34.6641C36.3351 34.6641 36.8152 34.5908 37.2873 34.4443C37.7593 34.2979 38.1906 34.0781 38.5812 33.7852C38.9718 34.0456 39.4031 34.2572 39.8751 34.4199C40.3471 34.5827 40.8436 34.6641 41.3644 34.6641C42.6339 34.6641 43.7326 34.2002 44.6603 33.2725C45.588 32.3447 46.0519 31.2461 46.0519 29.9766C46.0519 28.6745 45.588 27.5596 44.6603 26.6318C43.7326 25.7041 42.6339 25.2402 41.3644 25.2402ZM36.6281 30.1719V30.2207C36.6281 30.2533 36.6362 30.2858 36.6525 30.3184C36.6688 30.3509 36.6769 30.3835 36.6769 30.416V30.4648C36.7094 30.888 36.799 31.2868 36.9455 31.6611C37.0919 32.0355 37.2954 32.4017 37.5558 32.7598C37.2954 32.9225 37.0187 33.0446 36.7257 33.126C36.4328 33.2074 36.1398 33.248 35.8468 33.248C34.9354 33.248 34.1623 32.9225 33.5275 32.2715C32.8927 31.6204 32.5753 30.8555 32.5753 29.9766C32.5753 29.0651 32.8927 28.292 33.5275 27.6572C34.1623 27.0225 34.9354 26.7051 35.8468 26.7051C36.1398 26.7051 36.4328 26.7458 36.7257 26.8271C37.0187 26.9085 37.2954 27.0143 37.5558 27.1445C37.2954 27.5026 37.0919 27.877 36.9455 28.2676C36.799 28.6582 36.7094 29.0488 36.6769 29.4395V29.4883C36.6769 29.5208 36.6688 29.5534 36.6525 29.5859C36.6362 29.6185 36.6281 29.651 36.6281 29.6836V29.7324V29.8301V29.9766V30.0742V30.1719ZM41.3644 33.248C40.9087 33.248 40.4855 33.1585 40.0949 32.9795C39.7042 32.8005 39.3462 32.5645 39.0206 32.2715L38.9718 32.2227L38.923 32.1738V32.125C38.8904 32.125 38.866 32.1169 38.8498 32.1006C38.8335 32.0843 38.8253 32.0599 38.8253 32.0273C38.5975 31.7669 38.4103 31.4577 38.2638 31.0996C38.1173 30.7415 38.0441 30.3672 38.0441 29.9766C38.0441 29.5534 38.1173 29.1709 38.2638 28.8291C38.4103 28.4873 38.5975 28.1699 38.8253 27.877C38.8253 27.8444 38.8335 27.82 38.8498 27.8037C38.866 27.7874 38.8904 27.7793 38.923 27.7793V27.7305H38.9718L39.0206 27.6816V27.6328C39.3462 27.3398 39.7042 27.112 40.0949 26.9492C40.4855 26.7865 40.9087 26.7051 41.3644 26.7051C42.2433 26.7051 43.0083 27.0225 43.6593 27.6572C44.3104 28.292 44.6359 29.0651 44.6359 29.9766C44.6359 30.8555 44.3104 31.6204 43.6593 32.2715C43.0083 32.9225 42.2433 33.248 41.3644 33.248ZM18.9523 25.7285H15.8273C15.0786 25.7285 14.4438 25.9889 13.923 26.5098C13.4022 27.0306 13.1417 27.6654 13.1417 28.4141V31.5391C13.1417 32.2552 13.4022 32.8737 13.923 33.3945C14.4438 33.9154 15.0786 34.1758 15.8273 34.1758H18.9523C19.701 34.1758 20.3358 33.9154 20.8566 33.3945C21.3774 32.8737 21.6378 32.2552 21.6378 31.5391V28.4141C21.6378 27.6654 21.3774 27.0306 20.8566 26.5098C20.3358 25.9889 19.701 25.7285 18.9523 25.7285ZM20.2218 30.3184H18.6593C18.464 30.3184 18.3012 30.3916 18.171 30.5381C18.0408 30.6846 17.9757 30.8555 17.9757 31.0508C17.9757 31.2461 18.0408 31.417 18.171 31.5635C18.3012 31.71 18.464 31.7832 18.6593 31.7832H20.173C20.1079 32.0436 19.9614 32.2715 19.7335 32.4668C19.5057 32.6621 19.2453 32.7598 18.9523 32.7598H15.8273C15.5343 32.7598 15.2739 32.6621 15.046 32.4668C14.8182 32.2715 14.6717 32.0436 14.6066 31.7832H16.1203C16.3156 31.7832 16.4783 31.71 16.6085 31.5635C16.7387 31.417 16.8039 31.2461 16.8039 31.0508C16.8039 30.8555 16.7387 30.6846 16.6085 30.5381C16.4783 30.3916 16.3156 30.3184 16.1203 30.3184H14.6066V29.7324H16.1203C16.3156 29.7324 16.4783 29.6592 16.6085 29.5127C16.7387 29.3662 16.8039 29.1953 16.8039 29C16.8039 28.8047 16.7387 28.6419 16.6085 28.5117C16.4783 28.3815 16.3156 28.3164 16.1203 28.3164H14.6066C14.6066 27.9909 14.7287 27.7142 14.9728 27.4863C15.2169 27.2585 15.5018 27.1445 15.8273 27.1445H18.9523C19.2778 27.1445 19.5626 27.2585 19.8068 27.4863C20.0509 27.7142 20.1893 27.9909 20.2218 28.3164H18.6593C18.464 28.3164 18.3012 28.3815 18.171 28.5117C18.0408 28.6419 17.9757 28.8047 17.9757 29C17.9757 29.1953 18.0408 29.3662 18.171 29.5127C18.3012 29.6592 18.464 29.7324 18.6593 29.7324H20.2218V30.3184ZM46.1984 40.9629H21.3449C21.1496 40.9629 20.9787 41.0361 20.8322 41.1826C20.6857 41.3291 20.6124 41.5 20.6124 41.6953C20.6124 41.8906 20.6857 42.0534 20.8322 42.1836C20.9787 42.3138 21.1496 42.3789 21.3449 42.3789H46.1984C46.3937 42.3789 46.5646 42.3138 46.7111 42.1836C46.8576 42.0534 46.9308 41.8906 46.9308 41.6953C46.9308 41.5 46.8576 41.3291 46.7111 41.1826C46.5646 41.0361 46.3937 40.9629 46.1984 40.9629ZM16.755 40.9629H13.8742C13.6789 40.9629 13.508 41.0361 13.3615 41.1826C13.215 41.3291 13.1417 41.5 13.1417 41.6953C13.1417 41.8906 13.215 42.0534 13.3615 42.1836C13.508 42.3138 13.6789 42.3789 13.8742 42.3789H16.755C16.9829 42.3789 17.1619 42.3138 17.2921 42.1836C17.4223 42.0534 17.4874 41.8906 17.4874 41.6953C17.4874 41.5 17.4223 41.3291 17.2921 41.1826C17.1619 41.0361 16.9829 40.9629 16.755 40.9629Z" fill="#1172A9"/>
</g>
<defs>
<clipPath id="clip0_59_1247">
<rect width="50" height="52" fill="white" transform="matrix(1 0 0 -1 0.984375 52.7793)"/>
</clipPath>
</defs>
</svg>
