<svg width="50" height="53" viewBox="0 0 50 53" fill="none" xmlns="http://www.w3.org/2000/svg">
<g clip-path="url(#clip0_59_1238)">
<path d="M41.1787 41.0361C41.1787 41.0361 41.1258 40.9832 41.02 40.8774C40.9142 40.7716 40.7311 40.7188 40.4707 40.7188C40.2103 40.7188 39.9824 40.8164 39.7871 41.0117C39.5918 41.207 39.4941 41.4512 39.4941 41.7441V48.9707C39.4941 49.2311 39.3965 49.459 39.2012 49.6543C39.0059 49.8496 38.7617 49.9473 38.4688 49.9473H2.9707C2.71029 49.9473 2.48242 49.8577 2.28711 49.6787C2.0918 49.4997 1.99414 49.2637 1.99414 48.9707V4.83008C1.99414 4.56966 2.08366 4.3418 2.2627 4.14648C2.44173 3.95117 2.67773 3.85352 2.9707 3.85352H38.5664C38.8268 3.85352 39.0628 3.94304 39.2744 4.12207C39.486 4.30111 39.5918 4.53711 39.5918 4.83008V15.4258C39.5918 15.6862 39.6813 15.9222 39.8604 16.1338C40.0394 16.3454 40.2754 16.4512 40.5684 16.4512C40.8613 16.4512 41.0973 16.3535 41.2764 16.1582C41.4554 15.9629 41.5449 15.7188 41.5449 15.4258V4.83008C41.5449 4.04883 41.2601 3.3571 40.6904 2.75488C40.1208 2.15267 39.4128 1.85156 38.5664 1.85156H2.9707C2.12435 1.85156 1.41634 2.13639 0.84668 2.70605C0.277018 3.27571 -0.0078125 3.98372 -0.0078125 4.83008V48.9707C-0.0078125 49.752 0.277018 50.4437 0.84668 51.0459C1.41634 51.6481 2.12435 51.9492 2.9707 51.9492H38.5664C39.3802 51.9492 40.0801 51.6644 40.666 51.0947C41.252 50.5251 41.5449 49.8171 41.5449 48.9707V41.7441C41.5124 41.4837 41.3903 41.2477 41.1787 41.0361ZM29.6309 16.1582C29.6309 13.6517 28.752 11.5195 26.9941 9.76172C25.2363 8.00391 23.1204 7.125 20.6465 7.125C18.14 7.125 16.0078 8.00391 14.25 9.76172C12.4922 11.5195 11.6133 13.6517 11.6133 16.1582C11.6133 17.4277 11.8656 18.624 12.3701 19.7471C12.8747 20.8701 13.5501 21.8548 14.3965 22.7012L14.4453 22.75L14.4941 22.7988C15.2754 23.5475 16.195 24.1253 17.2529 24.5322C18.3109 24.9391 19.4095 25.1426 20.5488 25.1426C21.6882 25.1426 22.7786 24.9391 23.8203 24.5322C24.862 24.1253 25.7897 23.5475 26.6035 22.7988L26.6523 22.75L26.7012 22.7012C27.6126 21.8548 28.3288 20.8701 28.8496 19.7471C29.3704 18.624 29.6309 17.4277 29.6309 16.1582ZM20.7441 9.07812C22.6647 9.07812 24.3167 9.76986 25.7002 11.1533C27.0837 12.5368 27.7754 14.2051 27.7754 16.1582C27.7754 16.9395 27.6533 17.68 27.4092 18.3799C27.165 19.0798 26.8151 19.7227 26.3594 20.3086C26.0339 19.7552 25.627 19.2832 25.1387 18.8926C24.6504 18.502 24.1133 18.1764 23.5273 17.916C23.7552 17.623 23.9261 17.2894 24.04 16.915C24.154 16.5407 24.2109 16.1419 24.2109 15.7188V15.1328C24.2109 14.1562 23.8691 13.3343 23.1855 12.667C22.502 11.9997 21.6882 11.666 20.7441 11.666C19.8001 11.666 18.9863 12.0078 18.3027 12.6914C17.6191 13.375 17.2773 14.1888 17.2773 15.1328V15.7188C17.2773 16.1419 17.3424 16.5407 17.4727 16.915C17.6029 17.2894 17.7656 17.623 17.9609 17.916C17.3424 18.1764 16.7891 18.5182 16.3008 18.9414C15.8125 19.3646 15.4056 19.8203 15.0801 20.3086C14.6243 19.7227 14.2744 19.0798 14.0303 18.3799C13.7861 17.68 13.6641 16.9395 13.6641 16.1582C13.6641 14.2051 14.3558 12.5368 15.7393 11.1533C17.1227 9.76986 18.791 9.07812 20.7441 9.07812ZM19.1328 15.7188V15.1328C19.1328 14.7096 19.2874 14.3434 19.5967 14.0342C19.9059 13.7249 20.2884 13.5703 20.7441 13.5703C21.1673 13.5703 21.5335 13.7249 21.8428 14.0342C22.152 14.3434 22.3066 14.7096 22.3066 15.1328V15.7188C22.3066 16.1745 22.152 16.557 21.8428 16.8662C21.5335 17.1755 21.1673 17.3301 20.7441 17.3301C20.2884 17.3301 19.9059 17.1755 19.5967 16.8662C19.2874 16.557 19.1328 16.1745 19.1328 15.7188ZM16.4473 21.6758C16.903 20.9271 17.5052 20.333 18.2539 19.8936C19.0026 19.4541 19.8327 19.2344 20.7441 19.2344C21.623 19.2344 22.4368 19.4541 23.1855 19.8936C23.9342 20.333 24.5365 20.9271 24.9922 21.6758C24.4062 22.1315 23.7471 22.4814 23.0146 22.7256C22.2822 22.9697 21.5254 23.0918 20.7441 23.0918C19.9303 23.0918 19.1654 22.9697 18.4492 22.7256C17.7331 22.4814 17.0658 22.1315 16.4473 21.6758ZM25.9688 44.625H20.7441C20.4837 44.625 20.2477 44.7145 20.0361 44.8936C19.8245 45.0726 19.7188 45.3086 19.7188 45.6016C19.7188 45.8945 19.8083 46.1305 19.9873 46.3096C20.1663 46.4886 20.4186 46.5781 20.7441 46.5781H25.9688C26.2292 46.5781 26.4652 46.4886 26.6768 46.3096C26.8883 46.1305 26.9941 45.8945 26.9941 45.6016C26.9941 45.3086 26.8883 45.0726 26.6768 44.8936C26.4652 44.7145 26.2292 44.625 25.9688 44.625ZM25.9688 39.1562H12.1016C11.8411 39.1562 11.6133 39.2458 11.418 39.4248C11.2227 39.6038 11.125 39.8398 11.125 40.1328C11.125 40.3932 11.2145 40.6292 11.3936 40.8408C11.5726 41.0524 11.8086 41.1582 12.1016 41.1582H25.9688C26.2292 41.1582 26.4652 41.0605 26.6768 40.8652C26.8883 40.6699 26.9941 40.4258 26.9941 40.1328C26.9941 39.9049 26.8883 39.6852 26.6768 39.4736C26.4652 39.262 26.2292 39.1562 25.9688 39.1562ZM25.9688 33.6875H12.1016C11.8411 33.6875 11.6133 33.777 11.418 33.9561C11.2227 34.1351 11.125 34.3874 11.125 34.7129C11.125 35.0059 11.2145 35.2419 11.3936 35.4209C11.5726 35.5999 11.8086 35.6895 12.1016 35.6895H25.9688C26.2292 35.6895 26.4652 35.5999 26.6768 35.4209C26.8883 35.2419 26.9941 35.0059 26.9941 34.7129C26.9941 34.3874 26.8883 34.1351 26.6768 33.9561C26.4652 33.777 26.2292 33.6875 25.9688 33.6875ZM8.63477 28.5605C8.53711 28.4303 8.43132 28.3408 8.31738 28.292C8.20345 28.2432 8.08138 28.2188 7.95117 28.2188C7.78841 28.2188 7.65006 28.2432 7.53613 28.292C7.4222 28.3408 7.31641 28.4303 7.21875 28.5605C7.12109 28.6582 7.04785 28.7559 6.99902 28.8535C6.9502 28.9512 6.92578 29.0814 6.92578 29.2441C6.92578 29.3743 6.9502 29.4964 6.99902 29.6104C7.04785 29.7243 7.12109 29.8301 7.21875 29.9277C7.31641 30.0254 7.4222 30.0986 7.53613 30.1475C7.65006 30.1963 7.78841 30.2207 7.95117 30.2207C8.08138 30.2207 8.20345 30.1963 8.31738 30.1475C8.43132 30.0986 8.53711 30.0254 8.63477 29.9277C8.73242 29.8301 8.80566 29.7161 8.85449 29.5859C8.90332 29.4557 8.92773 29.3418 8.92773 29.2441C8.92773 29.0814 8.90332 28.9512 8.85449 28.8535C8.80566 28.7559 8.73242 28.6582 8.63477 28.5605ZM8.85449 34.2979C8.85449 34.2979 8.84229 34.2694 8.81787 34.2124C8.79346 34.1554 8.73242 34.0781 8.63477 33.9805C8.53711 33.8828 8.43132 33.8096 8.31738 33.7607C8.20345 33.7119 8.08138 33.6875 7.95117 33.6875C7.78841 33.6875 7.65006 33.7119 7.53613 33.7607C7.4222 33.8096 7.31641 33.8828 7.21875 33.9805C7.12109 34.0781 7.04785 34.1839 6.99902 34.2979C6.9502 34.4118 6.92578 34.5501 6.92578 34.7129C6.92578 34.8431 6.9502 34.9652 6.99902 35.0791C7.04785 35.193 7.12109 35.2988 7.21875 35.3965C7.31641 35.4941 7.4222 35.5674 7.53613 35.6162C7.65006 35.665 7.78841 35.6895 7.95117 35.6895C8.08138 35.6895 8.20345 35.665 8.31738 35.6162C8.43132 35.5674 8.53711 35.4941 8.63477 35.3965C8.73242 35.2988 8.80566 35.193 8.85449 35.0791C8.90332 34.9652 8.92773 34.8431 8.92773 34.7129C8.92773 34.5501 8.90332 34.4118 8.85449 34.2979ZM7.95117 39.1562C7.78841 39.1562 7.65006 39.1807 7.53613 39.2295C7.4222 39.2783 7.31641 39.3516 7.21875 39.4492C7.12109 39.5469 7.04785 39.6608 6.99902 39.791C6.9502 39.9212 6.92578 40.0352 6.92578 40.1328C6.92578 40.2956 6.9502 40.4258 6.99902 40.5234C7.04785 40.6211 7.12109 40.7188 7.21875 40.8164C7.31641 40.9466 7.4222 41.0361 7.53613 41.085C7.65006 41.1338 7.78841 41.1582 7.95117 41.1582C8.08138 41.1582 8.20345 41.1338 8.31738 41.085C8.43132 41.0361 8.53711 40.9466 8.63477 40.8164C8.73242 40.7188 8.80566 40.6211 8.85449 40.5234C8.90332 40.4258 8.92773 40.2956 8.92773 40.1328C8.92773 40.0026 8.90332 39.8805 8.85449 39.7666C8.80566 39.6527 8.73242 39.5469 8.63477 39.4492C8.53711 39.3516 8.43132 39.2783 8.31738 39.2295C8.20345 39.1807 8.08138 39.1562 7.95117 39.1562ZM25.9688 28.2188H12.1016C11.8411 28.2188 11.6133 28.3164 11.418 28.5117C11.2227 28.707 11.125 28.9512 11.125 29.2441C11.125 29.472 11.2145 29.6917 11.3936 29.9033C11.5726 30.1149 11.8086 30.2207 12.1016 30.2207H25.9688C26.2292 30.2207 26.4652 30.1312 26.6768 29.9521C26.8883 29.7731 26.9941 29.5371 26.9941 29.2441C26.9941 28.9512 26.8883 28.707 26.6768 28.5117C26.4652 28.3164 26.2292 28.2188 25.9688 28.2188ZM47.9902 14.5469C47.502 14.2539 46.9974 14.0749 46.4766 14.0098C45.9557 13.9447 45.4349 13.9935 44.9141 14.1562C44.3932 14.319 43.9131 14.5632 43.4736 14.8887C43.0342 15.2142 42.7005 15.6048 42.4727 16.0605L30.0703 37.3496C30.0052 37.4147 29.9727 37.4635 29.9727 37.4961V37.7402L29.0449 45.5039C29.0449 45.6992 29.0775 45.8864 29.1426 46.0654C29.2077 46.2445 29.3379 46.3828 29.5332 46.4805C29.6634 46.5456 29.7611 46.5781 29.8262 46.5781H30.0703L30.3633 46.5293L30.6562 46.3828L36.9062 41.7441C36.9388 41.679 36.9795 41.6221 37.0283 41.5732C37.0771 41.5244 37.1341 41.4837 37.1992 41.4512L49.5039 20.1133C50.0573 19.1693 50.1794 18.152 49.8701 17.0615C49.5609 15.971 48.9342 15.1328 47.9902 14.5469ZM31.7305 39.4492L34.6113 41.0605L31.2422 43.502L31.7305 39.4492ZM36.0273 39.6445L32.2188 37.5449L42.0332 20.5039L45.8418 22.7012L36.0273 39.6445ZM47.7949 19.2344L46.8184 20.8945L43.0586 18.6973L44.0352 17.0371C44.1979 16.7767 44.3932 16.557 44.6211 16.3779C44.849 16.1989 45.0931 16.0931 45.3535 16.0605C45.6465 15.9954 45.915 15.971 46.1592 15.9873C46.4033 16.0036 46.6556 16.0931 46.916 16.2559C47.1764 16.3861 47.3962 16.5651 47.5752 16.793C47.7542 17.0208 47.86 17.265 47.8926 17.5254C47.9902 17.8184 48.0391 18.1113 48.0391 18.4043C48.0391 18.6973 47.9577 18.974 47.7949 19.2344Z" fill="#1172A9"/>
</g>
<defs>
<clipPath id="clip0_59_1238">
<rect width="50" height="52" fill="white" transform="matrix(1 0 0 -1 -0.0078125 52.7793)"/>
</clipPath>
</defs>
</svg>
